<svg width="32" height="32" viewBox="0 0 29 32" fill="none" xmlns="http://www.w3.org/2000/svg">
<g clip-path="url(#clip0_59_183)">
<path d="M24.1667 2.46155H4.83333C2.16396 2.46155 0 4.66568 0 7.38462V27.0769C0 29.7959 2.16396 32 4.83333 32H24.1667C26.836 32 29 29.7959 29 27.0769V7.38462C29 4.66568 26.836 2.46155 24.1667 2.46155Z" fill="#D9D9D9"/>
<path d="M9.66665 0H7.24998C5.91529 0 4.83331 1.10207 4.83331 2.46154V4.92308C4.83331 6.28255 5.91529 7.38462 7.24998 7.38462H9.66665C11.0013 7.38462 12.0833 6.28255 12.0833 4.92308V2.46154C12.0833 1.10207 11.0013 0 9.66665 0Z" fill="#141414"/>
<path d="M21.75 0H19.3333C17.9986 0 16.9166 1.10207 16.9166 2.46154V4.92308C16.9166 6.28255 17.9986 7.38462 19.3333 7.38462H21.75C23.0846 7.38462 24.1666 6.28255 24.1666 4.92308V2.46154C24.1666 1.10207 23.0846 0 21.75 0Z" fill="#141414"/>
<path d="M9.66667 1.23077C9.66667 0.551034 9.12568 0 8.45833 0C7.79099 0 7.25 0.551034 7.25 1.23077V3.69231C7.25 4.37204 7.79099 4.92308 8.45833 4.92308C9.12568 4.92308 9.66667 4.37204 9.66667 3.69231V1.23077Z" fill="#D9D9D9"/>
<path d="M21.75 1.23077C21.75 0.551034 21.2091 0 20.5417 0C19.8744 0 19.3334 0.551034 19.3334 1.23077V3.69231C19.3334 4.37204 19.8744 4.92308 20.5417 4.92308C21.2091 4.92308 21.75 4.37204 21.75 3.69231V1.23077Z" fill="#D9D9D9"/>
<path d="M14.5 27.0769C18.4975 27.0769 21.75 24.3623 21.75 21.0253C21.75 17.7571 14.9553 10.3396 14.666 10.0256L14.5 9.84616L14.334 10.0268C14.045 10.3402 7.25 17.7582 7.25 21.0259C7.25007 24.3623 10.5025 27.0769 14.5 27.0769Z" fill="black"/>
</g>
<defs>
<clipPath id="clip0_59_183">
<rect width="29" height="32" fill="white"/>
</clipPath>
</defs>
</svg>
