<svg width="67" height="18" viewBox="0 0 67 18" fill="none" xmlns="http://www.w3.org/2000/svg">
<path d="M1.47 14V12.852H3.556V4.928H1.47V3.78H6.93V4.928H4.844V12.852H6.93V14H1.47ZM8.98253 14V6.3H10.2425V7.77H10.2565C10.3219 7.25667 10.5319 6.86 10.8865 6.58C11.2412 6.3 11.7125 6.16 12.3005 6.16C13.0752 6.16 13.6912 6.398 14.1485 6.874C14.6059 7.35 14.8345 7.99867 14.8345 8.82V14H13.5745V8.96C13.5745 8.40933 13.4252 7.98933 13.1265 7.7C12.8372 7.40133 12.4405 7.252 11.9365 7.252C11.4139 7.252 10.9985 7.41067 10.6905 7.728C10.3919 8.04533 10.2425 8.50267 10.2425 9.1V14H8.98253ZM16.7191 14V3.78H17.9791V9.478H19.4631L21.7031 6.3H23.1451L20.5551 9.968L23.1871 14H21.7171L19.4771 10.57H17.9791V14H16.7191ZM27.3396 14.14C26.3503 14.14 25.5616 13.8833 24.9736 13.37C24.3856 12.8567 24.0916 12.1707 24.0916 11.312H25.3516C25.3516 11.8253 25.5336 12.2407 25.8976 12.558C26.2616 12.866 26.7423 13.02 27.3396 13.02C27.9183 13.02 28.3803 12.866 28.7256 12.558C29.0709 12.2407 29.2436 11.8253 29.2436 11.312C29.2436 10.9107 29.1363 10.5607 28.9216 10.262C28.7163 9.954 28.4316 9.744 28.0676 9.632L26.5556 9.156C25.8743 8.94133 25.3376 8.58667 24.9456 8.092C24.5629 7.59733 24.3716 7.02333 24.3716 6.37C24.3716 5.53933 24.6423 4.87667 25.1836 4.382C25.7343 3.88733 26.4623 3.64 27.3676 3.64C28.2729 3.64 28.9963 3.88733 29.5376 4.382C30.0789 4.87667 30.3496 5.53933 30.3496 6.37H29.0896C29.0896 5.87533 28.9309 5.48333 28.6136 5.194C28.3056 4.90467 27.8903 4.76 27.3676 4.76C26.8356 4.76 26.4063 4.90467 26.0796 5.194C25.7623 5.48333 25.6036 5.866 25.6036 6.342C25.6036 6.71533 25.7109 7.03733 25.9256 7.308C26.1403 7.57867 26.4343 7.77467 26.8076 7.896L28.3756 8.4C29.0196 8.60533 29.5283 8.96933 29.9016 9.492C30.2843 10.0147 30.4756 10.6213 30.4756 11.312C30.4756 12.1707 30.1909 12.8567 29.6216 13.37C29.0523 13.8833 28.2916 14.14 27.3396 14.14ZM33.2841 16.52L34.4181 13.524L31.4781 6.3H32.8501L34.7261 11.06C34.7915 11.2187 34.8521 11.41 34.9081 11.634C34.9735 11.8487 35.0248 12.0307 35.0621 12.18C35.0995 12.0307 35.1508 11.8487 35.2161 11.634C35.2815 11.41 35.3468 11.2187 35.4121 11.06L37.1621 6.3H38.4781L34.6001 16.52H33.2841ZM39.7607 14V6.3H41.0207V7.77H41.0347C41.1 7.25667 41.31 6.86 41.6647 6.58C42.0193 6.3 42.4907 6.16 43.0787 6.16C43.8533 6.16 44.4693 6.398 44.9267 6.874C45.384 7.35 45.6127 7.99867 45.6127 8.82V14H44.3527V8.96C44.3527 8.40933 44.2033 7.98933 43.9047 7.7C43.6153 7.40133 43.2187 7.252 42.7147 7.252C42.192 7.252 41.7767 7.41067 41.4687 7.728C41.17 8.04533 41.0207 8.50267 41.0207 9.1V14H39.7607ZM50.4232 14.14C49.4899 14.14 48.7432 13.8787 48.1832 13.356C47.6325 12.8333 47.3572 12.1147 47.3572 11.2V9.1C47.3572 8.18533 47.6325 7.46667 48.1832 6.944C48.7432 6.42133 49.4899 6.16 50.4232 6.16C51.3099 6.16 52.0239 6.398 52.5652 6.874C53.1065 7.35 53.3912 7.99867 53.4192 8.82H52.1592C52.1312 8.32533 51.9632 7.94733 51.6552 7.686C51.3565 7.41533 50.9459 7.28 50.4232 7.28C49.8725 7.28 49.4339 7.43867 49.1072 7.756C48.7805 8.064 48.6172 8.50733 48.6172 9.086V11.2C48.6172 11.7787 48.7805 12.2267 49.1072 12.544C49.4339 12.8613 49.8725 13.02 50.4232 13.02C50.9459 13.02 51.3565 12.8847 51.6552 12.614C51.9632 12.3433 52.1312 11.9653 52.1592 11.48H53.4192C53.3912 12.3013 53.1065 12.95 52.5652 13.426C52.0239 13.902 51.3099 14.14 50.4232 14.14Z" fill="white"/>
<rect x="55" y="4" width="12" height="12" rx="2" fill="#D9D9D9"/>
<rect x="57" y="3" width="3" height="3" rx="1" fill="#141414"/>
<rect x="62" y="3" width="3" height="3" rx="1" fill="#141414"/>
<rect x="58" y="3" width="1" height="2" rx="0.5" fill="#D9D9D9"/>
<rect x="63" y="3" width="1" height="2" rx="0.5" fill="#D9D9D9"/>
<path d="M61 14C62.6541 14 64 12.8972 64 11.5415C64 10.2138 61.1884 7.20048 61.0687 7.07289L61 7L60.9313 7.07337C60.8117 7.20072 58 10.2143 58 11.5418C58 12.8972 59.3459 14 61 14Z" fill="black"/>
</svg>
